Coordinates
version=1
nRows=9
nColumns=24
inDegrees=yes

Units are S.I. units (second, meters, Newtons, ...)
Angles are in degrees.

endheader
time	pelvis_tilt	pelvis_list	pelvis_rotation	pelvis_tx	pelvis_ty	pelvis_tz	hip_flexion_r	hip_adduction_r	hip_rotation_r	knee_angle_r	ankle_angle_r	subtalar_angle_r	mtp_angle_r	hip_flexion_l	hip_adduction_l	hip_rotation_l	knee_angle_l	ankle_angle_l	subtalar_angle_l	mtp_angle_l	lumbar_extension	lumbar_bending	lumbar_rotation
      0.01000000	     55.76394547	      4.27192839	     -4.20504208	      1.28743225	      1.04423285	     -0.28790776	     24.22192616	     -6.21556235	      1.90672910	     -9.51126937	    -30.82374596	      0.00000000	      0.00000000	     15.61134289	    -11.16024209	     -5.34349407	    -63.36928745	    -14.29787341	      0.00000000	      0.00000000	      0.00000000	      0.00000000	      0.00000000
      0.02000000	     55.76572918	      4.27629763	     -4.20310645	      1.28741530	      1.04424790	     -0.28788304	     24.22587008	     -6.22115135	      1.90202233	     -9.51508971	    -30.83064478	      0.00000000	      0.00000000	     15.61198137	    -11.15314660	     -5.34202487	    -63.37082673	    -14.29708580	      0.00000000	      0.00000000	      0.00000000	      0.00000000	      0.00000000
      0.03000000	     55.76792339	      4.27894799	     -4.20298818	      1.28739487	      1.04424761	     -0.28787358	     24.23051614	     -6.23035531	      1.89748488	     -9.51819228	    -30.83848946	      0.00000000	      0.00000000	     15.61098127	    -11.14742898	     -5.34025064	    -63.37257083	    -14.29654904	      0.00000000	      0.00000000	      0.00000000	      0.00000000	      0.00000000
      0.04000000	     55.77050755	      4.28063836	     -4.20460739	      1.28738263	      1.04424166	     -0.28787182	     24.23494989	     -6.24115760	      1.89305810	     -9.52065564	    -30.84694153	      0.00000000	      0.00000000	     15.60764385	    -11.14279616	     -5.33956136	    -63.37478062	    -14.29645133	      0.00000000	      0.00000000	      0.00000000	      0.00000000	      0.00000000
      0.05000000	     55.77396169	      4.28203387	     -4.20834968	      1.28738377	      1.04423865	     -0.28787099	     24.23807437	     -6.25146935	      1.88867983	     -9.52255096	    -30.85559460	      0.00000000	      0.00000000	     15.60163702	    -11.13946308	     -5.34115400	    -63.37747953	    -14.29695299	      0.00000000	      0.00000000	      0.00000000	      0.00000000	      0.00000000
      0.06000000	     55.77920348	      4.28314559	     -4.21490326	      1.28738879	      1.04423975	     -0.28786621	     24.23908320	     -6.25976609	      1.88426372	     -9.52381860	    -30.86401639	      0.00000000	      0.00000000	     15.59306231	    -11.13801033	     -5.34550841	    -63.38047253	    -14.29811456	      0.00000000	      0.00000000	      0.00000000	      0.00000000	      0.00000000
      0.07000000	     55.78702094	      4.28324573	     -4.22461010	      1.28738322	      1.04423950	     -0.28785574	     24.23773014	     -6.26530411	      1.87966232	     -9.52423882	    -30.87173732	      0.00000000	      0.00000000	     15.58219959	    -11.13885624	     -5.35219542	    -63.38354547	    -14.29988110	      0.00000000	      0.00000000	      0.00000000	      0.00000000	      0.00000000
      0.08000000	     55.79744528	      4.28152837	     -4.23683693	      1.28736444	      1.04423334	     -0.28784213	     24.23419166	     -6.26811277	      1.87466416	     -9.52361098	    -30.87825740	      0.00000000	      0.00000000	     15.56944943	    -11.14192246	     -5.35995819	    -63.38654312	    -14.30210705	      0.00000000	      0.00000000	      0.00000000	      0.00000000	      0.00000000
      0.09000000	     55.80955386	      4.27792045	     -4.24981329	      1.28734047	      1.04422361	     -0.28782867	     24.22881451	     -6.26890128	      1.86907884	     -9.52197802	    -30.88310739	      0.00000000	      0.00000000	     15.55550645	    -11.14662993	     -5.36708770	    -63.38931573	    -14.30460622	      0.00000000	      0.00000000	      0.00000000	      0.00000000	      0.00000000
